<svg width="372" height="82" viewBox="0 0 372 82" fill="none" xmlns="http://www.w3.org/2000/svg">
<path d="M59.8967 2.94702C59.7848 2.8987 59.6711 2.85227 59.5593 2.80585C41.6773 -4.75514 21.003 3.47951 13.244 21.3236C13.1995 21.426 13.1597 21.5264 13.1161 21.6278C12.8205 22.326 12.5476 23.0282 12.2994 23.7331C11.8408 25.0358 11.4646 26.3511 11.1662 27.669C10.2755 31.6077 10.0803 35.5937 10.5266 39.4727C10.033 39.8385 9.54596 40.2157 9.07032 40.608C7.67656 41.7553 6.36428 43.0175 5.14581 44.3818C3.5057 46.2246 2.03993 48.2571 0.787346 50.4705C0.639538 50.7309 0.494571 50.9925 0.354342 51.2578C-0.596939 53.4947 0.432037 56.0851 2.66433 57.0564C3.65256 57.4865 4.71375 57.5264 5.67356 57.245C5.86211 57.1408 6.05066 57.0392 6.24111 56.939C6.55852 56.7731 6.87688 56.6102 7.19997 56.4529C8.96515 55.5887 10.8004 54.8734 12.6831 54.3116C13.551 54.0546 14.4284 53.8272 15.3162 53.6351C18.2733 58.6017 22.4659 62.8835 27.6877 65.9675C28.941 66.7076 30.2525 67.3784 31.6207 67.9733L31.6577 67.9896C33.0626 68.5986 34.4878 69.1094 35.9223 69.5272C41.6916 71.2005 47.6276 71.3323 53.2272 70.1195C53.7096 70.9306 54.1586 71.7595 54.5764 72.6048C55.5865 74.656 56.3994 76.8013 56.9991 79.0089C57.0267 78.9955 57.0531 78.9823 57.0807 78.9671C57.4654 80.1146 58.3172 81.0989 59.5129 81.62C61.5092 82.488 63.7946 81.7708 64.9629 80.0228C65.2386 79.259 65.4887 78.4944 65.7086 77.7259C66.3264 75.5799 66.7281 73.4119 66.93 71.245C67.0928 69.4875 67.1241 67.7298 67.0247 65.9893C66.9848 65.3108 66.9289 64.6355 66.8522 63.9617C69.9912 61.6423 72.776 58.7817 75.0471 55.4428C76.131 53.8519 77.0983 52.1513 77.9321 50.3491C78.0042 50.1928 78.0742 50.0355 78.1434 49.8802C78.1851 49.7843 78.2296 49.6915 78.2714 49.5948C86.0788 31.639 77.8526 10.7506 59.8947 2.94229L59.8967 2.94702ZM38.7335 56.4785L38.7297 56.6338C38.1385 56.3363 37.5368 56.0512 36.9229 55.7839C36.9114 55.7791 36.8991 55.7753 36.8896 55.7716C36.3354 55.531 35.7793 55.3064 35.2211 55.096C35.2524 55.0647 35.2837 55.0363 35.3139 55.007C27.3162 50.7441 22.8819 42.1239 23.6893 33.4202C23.8682 31.4931 24.3023 29.5611 25.0129 27.6727C25.1445 27.3221 25.2857 26.9735 25.4373 26.6258C30.2411 15.579 42.963 10.4246 54.0668 14.9205C54.1538 14.9565 54.2419 14.9925 54.3292 15.0285C54.4173 15.0664 54.5064 15.1015 54.5954 15.1403C54.7252 15.1971 54.856 15.2531 54.983 15.3127C65.9368 20.3212 70.9046 33.2061 66.081 44.2983C65.9236 44.6595 65.7588 45.0129 65.5863 45.3595C64.6919 47.1531 63.5824 48.7762 62.3033 50.2107C56.5199 56.7001 47.2646 59.3416 38.7335 56.4785Z" fill="white"/>
<path d="M34.4288 72.6295C33.1004 75.0807 31.5132 77.3214 29.7178 79.3301C29.5444 79.5253 29.3672 79.7185 29.1872 79.9091C28.6225 80.3723 27.8883 80.5988 27.1492 80.5193C26.9075 80.4217 26.666 80.3183 26.4234 80.2152L26.3172 80.1696C26.0947 80.0731 25.873 79.9726 25.654 79.8721C25.0685 79.3699 24.7274 78.6424 24.699 77.8795C24.7151 77.6702 24.7292 77.458 24.7501 77.2467C24.9898 74.5386 25.5508 71.8259 26.4452 69.1569C27.6532 69.8675 28.9162 70.5157 30.2323 71.0937C30.2409 71.0975 30.2475 71.1021 30.2579 71.1069C30.2625 71.1087 30.2682 71.1098 30.2731 71.1116L30.3139 71.1296C30.3205 71.1325 30.328 71.1371 30.3346 71.14C31.6857 71.7274 33.0521 72.2203 34.4288 72.6295Z" fill="white"/>
<path d="M127.624 59.4375H114.745L105.62 20.7427H115.323L120.001 42.689L121.329 51.1788H121.965L123.755 42.689L130.223 20.7427H143.102L149.513 42.689L151.303 51.1788H151.939L153.267 42.689L157.945 20.7427H167.417L158.234 59.4375H145.355L139.579 40.0901L136.865 28.9437H136.23L133.515 40.0901L127.624 59.4375ZM179.07 59.4375H170.407V20.7427H179.07V59.4375ZM203.153 59.4375H172.832V51.6408H203.153V59.4375ZM202.287 43.8441H172.832V36.1051H202.287V43.8441ZM203.153 28.5394H172.832V20.7427H203.153V28.5394ZM231.208 59.4375H206.893V20.7427H230.11C232.767 20.7427 235 21.1084 236.81 21.84C238.619 22.533 239.986 23.5918 240.91 25.0164C241.834 26.4025 242.296 28.1159 242.296 30.1565C242.296 32.5436 241.603 34.5458 240.217 36.1628C238.831 37.7414 236.521 38.6462 233.287 38.8773V39.397C236.867 39.6666 239.524 40.6291 241.257 42.2847C243.028 43.9403 243.913 46.0772 243.913 48.6954C243.913 50.89 243.451 52.7959 242.527 54.4129C241.603 56.03 240.198 57.2814 238.311 58.1669C236.463 59.014 234.095 59.4375 231.208 59.4375ZM215.556 43.2665V51.6408H230.168C231.939 51.6408 233.21 51.3328 233.98 50.7167C234.75 50.0622 235.135 48.9649 235.135 47.4248C235.135 45.8847 234.75 44.8066 233.98 44.1906C233.21 43.5745 231.939 43.2665 230.168 43.2665H215.556ZM215.556 28.5394V36.1051H229.128C230.746 36.1051 231.901 35.8163 232.594 35.2388C233.287 34.6228 233.633 33.6602 233.633 32.3511C233.633 31.042 233.267 30.0795 232.536 29.4634C231.804 28.8474 230.63 28.5394 229.013 28.5394H215.556ZM267.035 60.015C262.8 60.015 259.104 59.2065 255.947 57.5894C252.828 55.9338 250.422 53.6237 248.728 50.659C247.072 47.6558 246.244 44.1328 246.244 40.0901C246.244 36.0473 247.072 32.5436 248.728 29.579C250.422 26.5758 252.828 24.2656 255.947 22.6485C259.104 20.9929 262.8 20.1651 267.035 20.1651C271.425 20.1651 275.179 20.9929 278.297 22.6485C281.416 24.2656 283.822 26.5758 285.517 29.579C287.211 32.5436 288.058 36.0473 288.058 40.0901C288.058 44.1328 287.211 47.6558 285.517 50.659C283.822 53.6237 281.416 55.9338 278.297 57.5894C275.179 59.2065 271.425 60.015 267.035 60.015ZM267.035 51.6985C269.885 51.6985 272.156 51.3328 273.85 50.6012C275.583 49.8312 276.834 48.5991 277.604 46.905C278.413 45.2109 278.817 42.9393 278.817 40.0901C278.817 37.2024 278.413 34.9308 277.604 33.2752C276.834 31.5811 275.583 30.3683 273.85 29.6367C272.156 28.8667 269.885 28.4816 267.035 28.4816C264.225 28.4816 261.972 28.8667 260.278 29.6367C258.584 30.3683 257.352 31.5811 256.582 33.2752C255.812 34.9308 255.427 37.2024 255.427 40.0901C255.427 42.9393 255.812 45.2109 256.582 46.905C257.352 48.5991 258.584 49.8312 260.278 50.6012C261.972 51.3328 264.225 51.6985 267.035 51.6985ZM298.939 59.4375H289.237L306.158 20.7427H318.518L335.555 59.4375H325.621L314.995 34.6613L312.627 28.6549H311.992L309.624 34.6613L298.939 59.4375ZM325.737 50.89H298.477V43.0933H325.737V50.89ZM346.239 59.4375H337.576V20.7427H346.239V59.4375ZM369.456 44.9991H340.002V37.2602H369.456V44.9991ZM370.322 28.5394H340.002V20.7427H370.322V28.5394Z" fill="white"/>
</svg>
